<svg width="100" height="100" viewBox="0 0 100 100" fill="none" xmlns="http://www.w3.org/2000/svg">
<g id="stash:user-group">
<path id="Vector" d="M41.6667 13.5416C32.9333 13.5416 25.7125 20.4583 25.7125 29.1666C25.7125 37.875 32.9333 44.7916 41.6667 44.7916C48.5417 44.7916 54.4792 40.5041 56.6958 34.4333C57.7493 36.6805 59.5309 38.5059 61.7518 39.6137C63.9727 40.7214 66.5027 41.0465 68.9315 40.5361C71.3603 40.0258 73.5455 38.7101 75.1328 36.8022C76.7201 34.8943 77.6164 32.5062 77.6764 30.0251C77.7363 27.544 76.9565 25.1153 75.4632 23.133C73.97 21.1507 71.8509 19.7308 69.4496 19.1038C67.0482 18.4767 64.5055 18.6791 62.2337 19.6783C59.9619 20.6774 58.0941 22.4146 56.9333 24.6083C54.9333 18.1666 48.8083 13.5416 41.6667 13.5416ZM31.9625 29.1666C31.9625 24.0666 36.2292 19.7916 41.6667 19.7916C47.1042 19.7916 51.3708 24.0666 51.3708 29.1666C51.3708 34.2666 47.1042 38.5416 41.6667 38.5416C36.2292 38.5416 31.9625 34.2666 31.9625 29.1666ZM59.8208 29.7625C59.8208 27.9468 60.5421 26.2056 61.8259 24.9217C63.1098 23.6379 64.851 22.9166 66.6667 22.9166C68.4823 22.9166 70.2236 23.6379 71.5074 24.9217C72.7912 26.2056 73.5125 27.9468 73.5125 29.7625C73.5125 31.5781 72.7912 33.3193 71.5074 34.6032C70.2236 35.887 68.4823 36.6083 66.6667 36.6083C64.851 36.6083 63.1098 35.887 61.8259 34.6032C60.5421 33.3193 59.8208 31.5781 59.8208 29.7625ZM34.5208 48.7791C32.8417 47.6916 30.4208 46.8541 27.8708 47.5541C27.1903 47.743 26.5125 47.9444 25.8375 48.1583L21.7375 49.475C16.6 51.1166 12.6208 55.1958 11.2792 60.3625L11.2333 60.5291L9.48333 72.8291C8.7875 77.7458 11.5042 82.8333 16.9 84.0833C21.8875 85.2416 29.925 86.4583 41.6667 86.4583C53.4083 86.4583 61.4417 85.2416 66.4375 84.0833C71.825 82.8333 74.5458 77.75 73.85 72.8291L72.1 60.5333L72.0583 60.3625C70.7125 55.1958 66.7333 51.1166 61.5958 49.475L57.4958 48.1583C56.8208 47.9444 56.1431 47.743 55.4625 47.5541C52.9125 46.8541 50.4917 47.6916 48.8125 48.7791C47.2708 49.7791 44.7542 50.9833 41.6667 50.9833C38.5833 50.9833 36.0625 49.7791 34.5208 48.7791ZM29.5292 53.575C29.7958 53.5041 30.3708 53.5333 31.1292 54.0208C33.2625 55.4041 36.9625 57.2291 41.6667 57.2291C46.3708 57.2291 50.0708 55.4041 52.2083 54.0208C52.9583 53.5333 53.5375 53.5041 53.8042 53.575C54.4014 53.7416 54.9958 53.9194 55.5875 54.1083L59.6917 55.4208C62.8167 56.4208 65.1417 58.8375 65.9667 61.7708L67.6583 73.7041C67.9708 75.9 66.8 77.5791 65.0208 77.9958C60.5333 79.0375 52.975 80.2041 41.6667 80.2041C30.3583 80.2041 22.8 79.0375 18.3125 77.9958C16.5333 77.5791 15.3625 75.9 15.6708 73.7041L17.3667 61.7708C17.8056 60.2758 18.6087 58.9132 19.7038 57.8049C20.799 56.6967 22.152 55.8775 23.6417 55.4208L27.7458 54.1083C28.3375 53.9194 28.9319 53.7416 29.5292 53.575Z" fill="#F5F5F5"/>
<path id="Vector_2" d="M75.7625 42.9083C75.1059 42.7445 74.4202 42.7352 73.7594 42.8813C73.0985 43.0273 72.4806 43.3247 71.9542 43.75C70.8292 44.625 68.8375 45.8333 66.6667 45.8333C66.1141 45.8333 65.5842 46.0528 65.1935 46.4435C64.8028 46.8342 64.5833 47.3641 64.5833 47.9166C64.5833 48.4692 64.8028 48.9991 65.1935 49.3898C65.5842 49.7805 66.1141 50 66.6667 50C70.2417 50 73.15 48.0958 74.5125 47.0416C74.563 46.9939 74.6246 46.9595 74.6917 46.9416H74.7083C75.2667 47.0889 75.8208 47.2528 76.3708 47.4333L79.225 48.3708C81.4167 49.0916 83.0792 50.8458 83.6667 53.0125L84.8458 61.55C85.0792 63.2291 84.1958 64.4875 82.9292 64.7875C81.9986 65.0152 80.8695 65.2375 79.5417 65.4541C79.2714 65.4979 79.0123 65.5945 78.7794 65.7384C78.5464 65.8823 78.344 66.0706 78.1838 66.2927C78.0237 66.5148 77.9088 66.7663 77.8458 67.0327C77.7828 67.2992 77.7729 67.5755 77.8167 67.8458C77.8605 68.1161 77.957 68.3751 78.1009 68.6081C78.2448 68.8411 78.4332 69.0435 78.6553 69.2036C78.8773 69.3638 79.1288 69.4787 79.3953 69.5417C79.6618 69.6047 79.938 69.6146 80.2083 69.5708C81.6306 69.3347 82.8583 69.0916 83.8917 68.8416C87.6208 67.9541 89.4458 64.3833 88.975 60.9791L87.7625 52.2041L87.7333 52.0916C87.277 50.3076 86.3768 48.6679 85.1165 47.3253C83.8562 45.9826 82.2767 44.9806 80.525 44.4125L77.6708 43.475C77.0405 43.2671 76.4041 43.0782 75.7625 42.9083Z" fill="#F5F5F5"/>
</g>
</svg>
