<svg width="101" height="101" viewBox="0 0 101 101" fill="none" xmlns="http://www.w3.org/2000/svg">
<g id="mdi:file-text-outline">
<path id="Vector" d="M25.8214 8.83337C23.6113 8.83337 21.4917 9.71135 19.9289 11.2742C18.3661 12.837 17.4881 14.9566 17.4881 17.1667V83.8334C17.4881 86.0435 18.3661 88.1631 19.9289 89.7259C21.4917 91.2887 23.6113 92.1667 25.8214 92.1667H75.8214C78.0316 92.1667 80.1512 91.2887 81.714 89.7259C83.2768 88.1631 84.1548 86.0435 84.1548 83.8334V33.8334L59.1548 8.83337H25.8214ZM25.8214 17.1667H54.9881V38H75.8214V83.8334H25.8214V17.1667ZM34.1548 50.5V58.8334H67.4881V50.5H34.1548ZM34.1548 67.1667V75.5H54.9881V67.1667H34.1548Z" fill="#F5F5F5"/>
</g>
</svg>
