<svg width="101" height="101" viewBox="0 0 101 101" fill="none" xmlns="http://www.w3.org/2000/svg">
<g id="mdi:scroll">
<path id="Vector" d="M74.8093 83.8334C73.1427 88.8334 68.5594 92.1667 63.1427 92.1667H21.476C14.3927 92.1667 8.97601 86.75 8.97601 79.6667V75.5H59.8093C61.476 80.5 66.0594 83.8334 71.476 83.8334H74.8093ZM79.8094 8.83337H33.976C26.8927 8.83337 21.476 14.25 21.476 21.3334V67.1667H67.3094V71.3334C67.3094 73.8334 68.976 75.5 71.476 75.5H75.6427V21.3334C75.6427 18.8334 77.3094 17.1667 79.8094 17.1667C82.3094 17.1667 83.976 18.8334 83.976 21.3334V25.5H92.3094V21.3334C92.3094 14.25 86.8927 8.83337 79.8094 8.83337Z" fill="#F5F5F5"/>
</g>
</svg>
