<svg width="101" height="100" viewBox="0 0 101 100" fill="none" xmlns="http://www.w3.org/2000/svg">
<g id="mingcute:currency-dollar-fill" clip-path="url(#clip0_10_315)">
<g id="Group">
<path id="Vector" fill-rule="evenodd" clip-rule="evenodd" d="M8.51196 50C8.51196 26.9875 27.1661 8.33337 50.1786 8.33337C73.1911 8.33337 91.8453 26.9875 91.8453 50C91.8453 73.0125 73.1911 91.6667 50.1786 91.6667C27.1661 91.6667 8.51196 73.0125 8.51196 50ZM54.3453 29.1667C54.3453 28.0616 53.9063 27.0018 53.1249 26.2204C52.3435 25.439 51.2837 25 50.1786 25C49.0736 25 48.0138 25.439 47.2324 26.2204C46.4509 27.0018 46.012 28.0616 46.012 29.1667V33.3334H41.8453C39.0826 33.3334 36.4331 34.4308 34.4796 36.3843C32.5261 38.3379 31.4286 40.9874 31.4286 43.75C31.4286 46.5127 32.5261 49.1622 34.4796 51.1157C36.4331 53.0692 39.0826 54.1667 41.8453 54.1667H58.512C59.0645 54.1667 59.5944 54.3862 59.9851 54.7769C60.3758 55.1676 60.5953 55.6975 60.5953 56.25C60.5953 56.8026 60.3758 57.3325 59.9851 57.7232C59.5944 58.1139 59.0645 58.3334 58.512 58.3334H37.6786C36.5736 58.3334 35.5138 58.7724 34.7324 59.5538C33.9509 60.3352 33.512 61.395 33.512 62.5C33.512 63.6051 33.9509 64.6649 34.7324 65.4463C35.5138 66.2277 36.5736 66.6667 37.6786 66.6667H46.012V70.8334C46.012 71.9384 46.4509 72.9983 47.2324 73.7797C48.0138 74.5611 49.0736 75 50.1786 75C51.2837 75 52.3435 74.5611 53.1249 73.7797C53.9063 72.9983 54.3453 71.9384 54.3453 70.8334V66.6667H58.512C61.2746 66.6667 63.9242 65.5692 65.8777 63.6157C67.8312 61.6622 68.9286 59.0127 68.9286 56.25C68.9286 53.4874 67.8312 50.8379 65.8777 48.8843C63.9242 46.9308 61.2746 45.8334 58.512 45.8334H41.8453C41.2928 45.8334 40.7629 45.6139 40.3722 45.2232C39.9815 44.8325 39.762 44.3026 39.762 43.75C39.762 43.1975 39.9815 42.6676 40.3722 42.2769C40.7629 41.8862 41.2928 41.6667 41.8453 41.6667H62.6786C63.7837 41.6667 64.8435 41.2277 65.6249 40.4463C66.4063 39.6649 66.8453 38.6051 66.8453 37.5C66.8453 36.395 66.4063 35.3352 65.6249 34.5538C64.8435 33.7724 63.7837 33.3334 62.6786 33.3334H54.3453V29.1667Z" fill="#F5F5F5"/>
</g>
</g>
<defs>
<clipPath id="clip0_10_315">
<rect width="100" height="100" fill="white" transform="translate(0.178627)"/>
</clipPath>
</defs>
</svg>
