<svg width="101" height="101" viewBox="0 0 101 101" fill="none" xmlns="http://www.w3.org/2000/svg">
<g id="material-symbols:heart-broken-rounded">
<path id="Vector" d="M50.4614 85.2917C49.4892 85.2917 48.535 85.1181 47.5989 84.7708C46.6628 84.4236 45.8114 83.9028 45.0448 83.2083C37.4753 76.5417 31.3295 70.9333 26.6073 66.3833C21.885 61.8333 18.1878 57.8417 15.5156 54.4083C12.8434 50.975 11.0378 47.8319 10.0989 44.9792C9.16004 42.1264 8.6906 39.1056 8.6906 35.9167C8.6906 29.5278 10.9128 24.1111 15.3573 19.6667C19.8017 15.2222 25.2184 13 31.6073 13C36.1906 13 40.2184 13.8847 43.6906 15.6542C47.1628 17.4236 48.4128 19.9764 47.4406 23.3125L43.5864 36.8542C43.2392 38.2431 43.4656 39.4764 44.2656 40.5542C45.0656 41.6319 46.1587 42.1694 47.5448 42.1667H54.5239L51.8156 68.625C51.7462 69.1806 51.9725 69.4931 52.4948 69.5625C53.017 69.632 53.3462 69.4236 53.4823 68.9375L61.1906 43.4167C61.6073 42.0278 61.3989 40.7778 60.5656 39.6667C59.7323 38.5556 58.6212 38 57.2323 38H50.3573L56.7114 19.1458C57.4753 16.7153 59.0725 15.0833 61.5031 14.25C63.9337 13.4167 66.4684 13 69.1073 13C75.4962 13 80.9128 15.2222 85.3573 19.6667C89.8017 24.1111 92.0239 29.5278 92.0239 35.9167C92.0239 38.9722 91.4684 41.9931 90.3573 44.9792C89.2462 47.9653 87.3184 51.2639 84.5739 54.875C81.8295 58.4861 78.1489 62.5667 73.5323 67.1167C68.9156 71.6667 63.0656 77.0306 55.9823 83.2083C55.2184 83.9028 54.3503 84.4236 53.3781 84.7708C52.4059 85.1181 51.4337 85.2917 50.4614 85.2917Z" fill="#F5F5F5"/>
</g>
</svg>
